<svg xmlns="http://www.w3.org/2000/svg" xmlns:xlink="http://www.w3.org/1999/xlink" width="12" height="22" viewBox="0 0 12 22"><defs><clipPath id="a"><path d="M1,0A1,1,0,1,1,0,1,1,1,0,0,1,1,0ZM6.028,0a1,1,0,1,1-1,1A1,1,0,0,1,6.028,0Zm5.023,0a1,1,0,1,1-1,1A1,1,0,0,1,11.052,0Z" fill="#939393"/></clipPath><clipPath id="b"><path d="M0,984H1446.743V0H0Z" fill="#939393"/></clipPath></defs><g transform="translate(0 22) rotate(-90)"><rect width="12" height="22" rx="3" transform="translate(22) rotate(90)" fill="#d5d5d5"/><g transform="translate(4.674 3.194)" clip-path="url(#a)"><g transform="translate(-1382.443 -642)" clip-path="url(#b)"><path d="M0,0H22.1V12H0Z" transform="translate(1377.42 637)" fill="#939393"/></g></g><g transform="translate(4.674 7.029)" clip-path="url(#a)"><g transform="translate(-1382.443 -642)" clip-path="url(#b)"><path d="M0,0H22.1V12H0Z" transform="translate(1377.42 637)" fill="#939393"/></g></g></g></svg>