<svg id="Layer_1" data-name="Layer 1" xmlns="http://www.w3.org/2000/svg" viewBox="0 0 91.61 66.01"><defs><style>.cls-1{fill:#ff6469;}.cls-2{fill:#ffdc69;}</style></defs><title>textrecog</title><g id="Layer_2" data-name="Layer 2"><path d="M58,77.1a14.16,14.16,0,0,1-2.2-.7A2.56,2.56,0,0,0,54,81.2a27.59,27.59,0,0,0,2.7.8,2.5,2.5,0,0,0,3.1-1.8A2.54,2.54,0,0,0,58,77.1Z" transform="translate(-3.8 -16.9)"/><path d="M47.7,71.6c-.6-.5-1.2-1.1-1.7-1.6a2.55,2.55,0,1,0-3.7,3.5,18,18,0,0,0,2,1.9,2.54,2.54,0,0,0,3.6-.3A2.35,2.35,0,0,0,47.7,71.6Z" transform="translate(-3.8 -16.9)"/><path d="M53.2,26.1a2.59,2.59,0,0,0-3.5-1c-.8.5-1.6.9-2.4,1.5a2.59,2.59,0,1,0,2.9,4.3c.6-.4,1.3-.8,2-1.2A2.76,2.76,0,0,0,53.2,26.1Z" transform="translate(-3.8 -16.9)"/><path d="M40,59.9a2.56,2.56,0,0,0-4.9,1.5,20,20,0,0,0,1,2.6,2.6,2.6,0,1,0,4.8-2A9.49,9.49,0,0,1,40,59.9Z" transform="translate(-3.8 -16.9)"/><path d="M88.9,43.6a18.66,18.66,0,0,1,.7,2.2,2.57,2.57,0,1,0,5-1.2,27.59,27.59,0,0,0-.8-2.7,2.69,2.69,0,0,0-3.3-1.6A2.53,2.53,0,0,0,88.9,43.6Z" transform="translate(-3.8 -16.9)"/><path d="M38.9,50.6a16.41,16.41,0,0,1,.2-2.3,2.57,2.57,0,1,0-5.1-.7c-.1.9-.2,1.9-.3,2.8a2.56,2.56,0,0,0,2.4,2.7A2.75,2.75,0,0,0,38.9,50.6Z" transform="translate(-3.8 -16.9)"/><path d="M38.7,40.3a2.53,2.53,0,0,0,3.5-1,22.63,22.63,0,0,1,1.3-2,2.58,2.58,0,0,0-4.2-3l-1.5,2.4A2.68,2.68,0,0,0,38.7,40.3Z" transform="translate(-3.8 -16.9)"/><path d="M80.2,72.6a21.41,21.41,0,0,1-1.9,1.3,2.61,2.61,0,0,0,2.8,4.4,18.82,18.82,0,0,0,2.3-1.6,2.6,2.6,0,1,0-3.2-4.1Z" transform="translate(-3.8 -16.9)"/><path d="M63.1,21.3a13.33,13.33,0,0,0-2.8.3,2.57,2.57,0,0,0,.7,5.1,17.85,17.85,0,0,1,2.3-.2,2.6,2.6,0,0,0-.2-5.2Z" transform="translate(-3.8 -16.9)"/><path d="M87.8,35.8a2.54,2.54,0,0,0,.3-3.6c-.6-.7-1.2-1.4-1.9-2.1a2.55,2.55,0,0,0-3.6,3.6,12.88,12.88,0,0,1,1.6,1.7A2.48,2.48,0,0,0,87.8,35.8Z" transform="translate(-3.8 -16.9)"/><path d="M92.9,49.6a2.65,2.65,0,0,0-2.6,2.6,17,17,0,0,1-.1,2.3,2.56,2.56,0,0,0,5.1.5,26.2,26.2,0,0,0,.1-2.8A2.44,2.44,0,0,0,92.9,49.6Z" transform="translate(-3.8 -16.9)"/><path d="M91.1,62.4a2.52,2.52,0,0,0-3.4,1.2,12.81,12.81,0,0,1-1.1,2,2.54,2.54,0,1,0,4.3,2.7c.5-.8.9-1.6,1.4-2.5A2.55,2.55,0,0,0,91.1,62.4Z" transform="translate(-3.8 -16.9)"/><path d="M69.7,77.4a18.46,18.46,0,0,1-2.3.4,2.56,2.56,0,0,0,.5,5.1,27,27,0,0,0,2.8-.4,2.52,2.52,0,0,0,2-3A2.59,2.59,0,0,0,69.7,77.4Z" transform="translate(-3.8 -16.9)"/><path d="M78.2,27.2a2.56,2.56,0,0,0-1.3-3.4,27.73,27.73,0,0,0-2.6-1A2.69,2.69,0,0,0,71,24.4a2.65,2.65,0,0,0,1.6,3.3,19.45,19.45,0,0,1,2.2.8A2.56,2.56,0,0,0,78.2,27.2Z" transform="translate(-3.8 -16.9)"/></g><path class="cls-1" d="M81.5,64.9H80.1a.68.68,0,0,1-.7-.7v-17a12,12,0,0,0-12-12H61.8a12,12,0,0,0-12,12,2.05,2.05,0,0,0,2.1,2.1h5.6a2.05,2.05,0,0,0,2.1-2.1c0-3.3,1.8-7.8,4.9-7.8s4.9,4.5,4.9,7.8v1.3a47.46,47.46,0,0,1-6.3,1.4c-4.3.7-8.3,1.3-11.2,4.9a8.37,8.37,0,0,0-1.4,9.1C52,67.2,55.6,69,60.2,69H63a15.67,15.67,0,0,0,7.4-1.9A4.79,4.79,0,0,0,74.3,69h7.1a2.05,2.05,0,0,0,2.1-2.1A1.89,1.89,0,0,0,81.5,64.9ZM69.5,63a12.61,12.61,0,0,1-6.3,1.9,3.29,3.29,0,0,1-3.1-2,5.11,5.11,0,0,1,.9-5.3c1.9-2.1,5.3-3.4,8.6-4.4L69.5,63Z" transform="translate(-3.8 -16.9)"/><path class="cls-2" d="M51,64.9H49.6L30.4,18.2a2.09,2.09,0,0,0-2-1.3,2.19,2.19,0,0,0-2,1.3L7.3,64.9H5.9a2.1,2.1,0,0,0,0,4.2h5.6A2.05,2.05,0,0,0,13.6,67a2.15,2.15,0,0,0-1.8-2.1L16,55H34l4.1,9.9A2.15,2.15,0,0,0,36.3,67a2.05,2.05,0,0,0,2.1,2.1H51A2.05,2.05,0,0,0,53.1,67,2,2,0,0,0,51,64.9ZM17.7,50.8,25,33.2l7.3,17.6Z" transform="translate(-3.8 -16.9)"/></svg>