<svg xmlns="http://www.w3.org/2000/svg" width="26.54" height="24" viewBox="0 0 26.54 24"><g transform="translate(0 -24.5)"><g transform="translate(20.216 42.176)"><path d="M395.287,365.5a1.037,1.037,0,0,0-1.037,1.037v1.14a2.076,2.076,0,0,1-2.073,2.073h-1.14a1.037,1.037,0,1,0,0,2.073h1.14a4.152,4.152,0,0,0,4.147-4.147v-1.14A1.037,1.037,0,0,0,395.287,365.5Z" transform="translate(-390 -365.5)" fill="#6f6f6f"/></g><g transform="translate(20.216 24.5)"><g transform="translate(0 0)"><path d="M392.177,24.5h-1.14a1.037,1.037,0,1,0,0,2.073h1.14a2.076,2.076,0,0,1,2.073,2.073v1.14a1.037,1.037,0,1,0,2.073,0v-1.14A4.152,4.152,0,0,0,392.177,24.5Z" transform="translate(-390 -24.5)" fill="#6f6f6f"/></g></g><g transform="translate(24.467 33.416)"><path d="M473.037,196.5A1.037,1.037,0,0,0,472,197.537v4.147a1.037,1.037,0,0,0,2.073,0v-4.147A1.037,1.037,0,0,0,473.037,196.5Z" transform="translate(-472 -196.5)" fill="#6f6f6f"/></g><g transform="translate(0 42.176)"><path d="M5.287,369.751H4.147a2.076,2.076,0,0,1-2.073-2.073v-1.14a1.037,1.037,0,0,0-2.073,0v1.14a4.152,4.152,0,0,0,4.147,4.147h1.14a1.037,1.037,0,1,0,0-2.073Z" transform="translate(0 -365.5)" fill="#6f6f6f"/></g><g transform="translate(0 24.5)"><g transform="translate(0 0)"><path d="M5.287,24.5H4.147A4.152,4.152,0,0,0,0,28.647v1.14a1.037,1.037,0,0,0,2.073,0v-1.14a2.076,2.076,0,0,1,2.073-2.073h1.14a1.037,1.037,0,0,0,0-2.073Z" transform="translate(0 -24.5)" fill="#6f6f6f"/></g></g><g transform="translate(0 33.416)"><path d="M1.037,196.5A1.037,1.037,0,0,0,0,197.537v4.147a1.037,1.037,0,0,0,2.073,0v-4.147A1.037,1.037,0,0,0,1.037,196.5Z" transform="translate(0 -196.5)" fill="#6f6f6f"/></g><g transform="translate(9.071 24.5)"><g transform="translate(0 0)"><path d="M182.257,24.5h-6.22a1.037,1.037,0,1,0,0,2.073h6.22a1.037,1.037,0,1,0,0-2.073Z" transform="translate(-175 -24.5)" fill="#6f6f6f"/></g></g><g transform="translate(9.071 46.427)"><path d="M182.257,447.5h-6.22a1.037,1.037,0,1,0,0,2.073h6.22a1.037,1.037,0,1,0,0-2.073Z" transform="translate(-175 -447.5)" fill="#6f6f6f"/></g></g></svg>