<svg xmlns="http://www.w3.org/2000/svg" width="23.94" height="23.939" viewBox="0 0 23.94 23.939"><g transform="translate(0 -0.005)"><path d="M23.686,11.374l-3.42-3.42a.855.855,0,0,0-1.456.6v1.71H13.68V5.135h1.71a.85.85,0,0,0,.6-1.456L12.571.259a.839.839,0,0,0-1.2,0l-3.42,3.42a.855.855,0,0,0,.6,1.456h1.71v5.13H5.13V8.555a.85.85,0,0,0-1.456-.6l-3.42,3.42a.839.839,0,0,0,0,1.2L3.674,16a.855.855,0,0,0,1.456-.6v-1.71h5.13v5.13H8.55a.85.85,0,0,0-.6,1.456l3.42,3.42a.839.839,0,0,0,1.2,0l3.42-3.42a.855.855,0,0,0-.6-1.456H13.68v-5.13h5.13v1.71a.85.85,0,0,0,1.456.6l3.42-3.42a.839.839,0,0,0,0-1.2Z" transform="translate(0 0)" fill="#6f6f6f"/></g></svg>