<svg xmlns="http://www.w3.org/2000/svg" width="23.796" height="24.996" viewBox="0 0 23.796 24.996"><path d="M22.7,16.038V7.958A2,2,0,1,0,20.466,5.2L5.5,2.016c0-.006,0-.011,0-.016A2,2,0,1,0,3.1,3.959V20.037A2,2,0,1,0,5.5,22c0-.006,0-.011,0-.016L20.466,18.8A2,2,0,1,0,22.7,16.038ZM22.3,4.8a1.2,1.2,0,1,1-1.173.95h0A1.2,1.2,0,0,1,22.3,4.8ZM2.3,2a1.2,1.2,0,1,1,2.376.233l0,.017c0,.007,0,.013-.006.02a1.159,1.159,0,0,1-.057.184c-.012.03-.029.057-.044.086s-.036.072-.058.106-.042.058-.064.086-.044.056-.068.083-.053.052-.081.077-.051.044-.078.065S4.154,3,4.122,3.02s-.061.035-.093.05-.065.032-.1.045a1.21,1.21,0,0,1-.121.038c-.029.008-.058.018-.088.024A1.193,1.193,0,0,1,2.3,2ZM3.5,23.2a1.2,1.2,0,0,1,0-2.4,1.214,1.214,0,0,1,.224.022c.03.006.058.016.088.024a1.233,1.233,0,0,1,.12.037c.034.013.066.029.1.046s.062.032.092.05a1.073,1.073,0,0,1,.094.064c.027.02.053.042.079.065s.055.05.081.078.046.054.068.082.044.056.064.086.039.07.058.106.032.056.044.086a1.155,1.155,0,0,1,.057.184c0,.007,0,.013.006.02l0,.017A1.228,1.228,0,0,1,4.7,22,1.2,1.2,0,0,1,3.5,23.2Zm16.8-5.183L5.332,21.2a1.971,1.971,0,0,0-.151-.275c-.018-.028-.036-.055-.056-.082a2,2,0,0,0-.2-.24c-.02-.021-.044-.039-.065-.059a2.075,2.075,0,0,0-.192-.158c-.029-.021-.057-.043-.088-.063a2.022,2.022,0,0,0-.267-.145c-.032-.014-.064-.026-.1-.039a1.992,1.992,0,0,0-.293-.091L3.9,20.037V3.959l.028-.008a1.992,1.992,0,0,0,.293-.091c.032-.012.064-.025.1-.039a2,2,0,0,0,.267-.145c.03-.02.058-.042.088-.063a2.075,2.075,0,0,0,.192-.158c.022-.02.044-.038.065-.059a2.042,2.042,0,0,0,.2-.24c.019-.027.038-.054.056-.082A1.971,1.971,0,0,0,5.332,2.8L20.3,5.983V6a1.984,1.984,0,0,0,.038.38c.008.04.022.078.032.118a1.979,1.979,0,0,0,.074.238c.018.044.039.085.06.128a2.01,2.01,0,0,0,.108.2c.026.042.054.081.083.12a2.078,2.078,0,0,0,.139.169c.033.036.066.071.1.1A2.009,2.009,0,0,0,21.1,7.6c.038.028.074.058.114.083a1.969,1.969,0,0,0,.212.115c.037.018.072.039.111.055a2,2,0,0,0,.333.1l.021.006h0v8.079h0l-.021.006a1.984,1.984,0,0,0-.333.1c-.038.016-.074.037-.111.055a1.97,1.97,0,0,0-.212.115c-.04.026-.076.055-.114.083a1.937,1.937,0,0,0-.171.142c-.036.034-.069.068-.1.1a2.011,2.011,0,0,0-.139.169c-.029.039-.057.078-.083.12a2.01,2.01,0,0,0-.108.2c-.02.042-.042.084-.06.128a1.979,1.979,0,0,0-.074.238c-.01.04-.024.078-.032.118A1.976,1.976,0,0,0,20.3,18Zm2,1.183a1.2,1.2,0,0,1-1.173-.95h0A1.174,1.174,0,0,1,21.1,18a1.2,1.2,0,1,1,1.2,1.2Z" transform="translate(-1 0.5)" stroke="#707070" stroke-width="1"/></svg>