<svg xmlns="http://www.w3.org/2000/svg" width="22.62" height="22.62" viewBox="0 0 22.62 22.62"><g transform="translate(0.001)"><g transform="translate(-0.001)"><path d="M104.693,3.878l2.693,1.508-1.508-2.693L107.386,0l-2.693,1.508L102,0l1.508,2.693L102,5.386Z" transform="translate(-97.691)" fill="#6f6f6f"/><path d="M410.693,307.508,408,306l1.508,2.693L408,311.386l2.693-1.508,2.693,1.508-1.508-2.693L413.386,306Z" transform="translate(-390.766 -293.074)" fill="#6f6f6f"/><path d="M413.386,0l-2.693,1.508L408,0l1.508,2.693L408,5.386l2.693-1.508,2.693,1.508-1.508-2.693Z" transform="translate(-390.766)" fill="#6f6f6f"/><path d="M14.433,127.823a1.041,1.041,0,0,0-1.508,0l-12.6,12.6a1.041,1.041,0,0,0,0,1.508L2.8,144.411a1.041,1.041,0,0,0,1.508,0l12.6-12.6a1.041,1.041,0,0,0,0-1.508Zm-1.185,5.924-2.262-2.262,2.585-2.585,2.262,2.262Z" transform="translate(0.001 -122.114)" fill="#6f6f6f"/></g></g></svg>